<?xml version="1.0" encoding="UTF-8"?>
<svg id="Calque_2" data-name="Calque 2" xmlns="http://www.w3.org/2000/svg" viewBox="0 0 288.52 151.56">
  <g id="Calque_1-2" data-name="Calque 1">
    <path d="M199.14,10.15l7.7-7.7c3.26-3.26,8.54-3.26,11.77,0l67.47,67.43c3.26,3.26,3.26,8.54,0,11.77l-67.47,67.47c-3.26,3.26-8.54,3.26-11.77,0l-7.7-7.7c-3.3-3.3-3.23-8.68,.14-11.9l41.82-39.84h-99.74c-4.62,0-8.33-3.71-8.33-8.33v-11.11c0-4.62,3.71-8.33,8.33-8.33h99.74l-41.82-39.84c-3.4-3.23-3.47-8.61-.14-11.9Z"/>
    <circle cx="80.34" cy="75.78" r="13.83"/>
    <circle cx="13.83" cy="75.78" r="13.83"/>
  </g>
</svg>