<?xml version="1.0" encoding="UTF-8"?><svg id="Calque_2" xmlns="http://www.w3.org/2000/svg" viewBox="0 0 153.11 35.51"><defs><style>.cls-1{fill:#1d71b8;}.cls-2{fill:#1d1d1b;}</style></defs><g id="Calque_1-2"><g><path class="cls-2" d="M16.4,4.74c1.72,1.72,2.58,3.8,2.58,6.24s-.86,4.51-2.58,6.24c-1.72,1.72-3.8,2.58-6.24,2.58s-4.51-.86-6.24-2.58c-1.72-1.72-2.58-3.8-2.58-6.24s.86-4.51,2.58-6.24c1.72-1.72,3.8-2.58,6.24-2.58s4.51,.86,6.24,2.58Zm-6.24-1.59c-2.16,0-4.01,.76-5.54,2.29-1.53,1.53-2.29,3.38-2.29,5.54s.76,4.01,2.29,5.54c1.53,1.53,3.37,2.3,5.54,2.3s4.01-.77,5.54-2.3c1.53-1.53,2.29-3.38,2.29-5.54s-.76-4.01-2.29-5.54c-1.53-1.53-3.38-2.29-5.54-2.29Z"/><path class="cls-2" d="M26.11,13.62c-.09,0-.19,.01-.29,.01h-2.92v5.96h-.97V2.41h4.51c1.31,.18,2.42,.73,3.34,1.64,1.1,1.1,1.64,2.42,1.64,3.96s-.55,2.88-1.64,3.97c-.76,.76-1.63,1.26-2.61,1.49l3.96,6.11h-1.19l-3.83-5.97Zm-3.21-10.24V12.65h2.92c1.27,0,2.36-.45,3.27-1.36,.91-.91,1.36-2,1.36-3.28s-.45-2.37-1.36-3.28c-.91-.9-2-1.35-3.27-1.35h-2.92Z"/><path class="cls-2" d="M41.94,13.01h-5.95l-2.4,6.58h-1.03L38.96,2.01l6.39,17.58h-1.02l-2.4-6.58Zm-.35-.97l-2.62-7.21-2.62,7.21h5.24Z"/><path class="cls-2" d="M52.39,10.08c-1.22-.41-2.19-.97-2.9-1.68s-1.06-1.57-1.06-2.58,.35-1.84,1.06-2.55c.71-.71,1.57-1.07,2.58-1.07s1.86,.35,2.58,1.06c.39,.38,.67,.81,.82,1.28l-.87,.34c-.13-.35-.34-.67-.63-.97-.52-.52-1.15-.77-1.89-.77s-1.37,.26-1.89,.78c-.52,.52-.78,1.15-.78,1.9s.26,1.37,.78,1.89c.49,.48,1.16,.92,2.02,1.32,1.38,.44,2.53,1.13,3.47,2.07,1,.99,1.49,2.18,1.49,3.59s-.5,2.61-1.49,3.61c-1,1-2.2,1.49-3.6,1.49s-2.6-.5-3.6-1.5c-.79-.79-1.27-1.72-1.43-2.77l.91-.33c.1,.93,.5,1.74,1.19,2.44,.81,.81,1.78,1.21,2.92,1.21s2.12-.4,2.93-1.21c.81-.81,1.21-1.79,1.21-2.93s-.4-2.11-1.21-2.92c-.71-.71-1.58-1.27-2.61-1.7Z"/><path class="cls-2" d="M60.49,2.41V19.59h-.97V2.41h.97Z"/><path class="cls-2" d="M68.2,10.08c-1.22-.41-2.19-.97-2.9-1.68s-1.06-1.57-1.06-2.58,.35-1.84,1.06-2.55c.71-.71,1.57-1.07,2.58-1.07s1.86,.35,2.58,1.06c.39,.38,.67,.81,.82,1.28l-.87,.34c-.13-.35-.34-.67-.63-.97-.52-.52-1.15-.77-1.89-.77s-1.37,.26-1.89,.78c-.52,.52-.78,1.15-.78,1.9s.26,1.37,.78,1.89c.49,.48,1.16,.92,2.02,1.32,1.38,.44,2.53,1.13,3.47,2.07,1,.99,1.49,2.18,1.49,3.59s-.5,2.61-1.49,3.61c-1,1-2.2,1.49-3.6,1.49s-2.6-.5-3.6-1.5c-.79-.79-1.27-1.72-1.43-2.77l.91-.33c.1,.93,.5,1.74,1.19,2.44,.81,.81,1.78,1.21,2.92,1.21s2.12-.4,2.93-1.21c.81-.81,1.21-1.79,1.21-2.93s-.4-2.11-1.21-2.92c-.71-.71-1.58-1.27-2.61-1.7Z"/></g><g><path class="cls-1" d="M123.68,14c.7-.52,1.32-.99,1.86-1.39,.54-.4,1.04-.86,1.5-1.36,.46-.5,.69-1.09,.69-1.76s-.24-1.25-.71-1.72c-.47-.47-1.05-.71-1.72-.71s-1.24,.24-1.71,.71c-.41,.41-.64,.89-.7,1.45l-.58-.21c.1-.63,.38-1.19,.85-1.66,.59-.6,1.31-.9,2.14-.9s1.55,.3,2.14,.89c.59,.59,.89,1.31,.89,2.15s-.29,1.56-.87,2.18c-.39,.43-.86,.84-1.4,1.24-.54,.4-1.14,.85-1.82,1.36s-1.09,1.14-1.26,1.9h5.34v.57h-5.99c.2-1.31,.64-2.23,1.34-2.75Z"/><path class="cls-1" d="M136.74,13.45c0,.96-.34,1.78-1.02,2.46-.68,.68-1.5,1.02-2.47,1.02s-1.78-.34-2.46-1.02-1.02-1.5-1.02-2.46v-3.37c0-.96,.34-1.78,1.02-2.46s1.5-1.02,2.46-1.02,1.79,.34,2.47,1.02c.68,.68,1.02,1.5,1.02,2.46v3.37Zm-.6-3.37c0-.79-.28-1.47-.84-2.03-.56-.56-1.24-.84-2.04-.84s-1.47,.28-2.04,.84c-.56,.56-.84,1.24-.84,2.03v3.37c0,.79,.28,1.47,.84,2.03,.56,.56,1.24,.84,2.04,.84s1.47-.28,2.04-.84c.56-.56,.84-1.24,.84-2.03v-3.37Z"/><path class="cls-1" d="M139.55,14c.7-.52,1.32-.99,1.86-1.39,.54-.4,1.04-.86,1.5-1.36,.46-.5,.69-1.09,.69-1.76s-.24-1.25-.71-1.72c-.47-.47-1.05-.71-1.72-.71s-1.24,.24-1.71,.71c-.41,.41-.64,.89-.7,1.45l-.58-.21c.1-.63,.38-1.19,.85-1.66,.59-.6,1.31-.9,2.14-.9s1.55,.3,2.14,.89c.59,.59,.89,1.31,.89,2.15s-.29,1.56-.87,2.18c-.39,.43-.86,.84-1.4,1.24-.54,.4-1.14,.85-1.82,1.36s-1.09,1.14-1.26,1.9h5.34v.57h-5.99c.2-1.31,.64-2.23,1.34-2.75Z"/><path class="cls-1" d="M148.77,11.09h-.48v-.58c.39,0,.72-.06,.97-.15,.25-.1,.53-.3,.82-.62s.44-.69,.44-1.12-.15-.8-.46-1.11-.67-.45-1.1-.45-.8,.15-1.1,.45c-.17,.17-.29,.37-.38,.58l-.55-.22c.09-.3,.26-.56,.49-.78,.43-.42,.94-.63,1.54-.63s1.12,.21,1.54,.64c.42,.43,.63,.93,.63,1.52s-.16,1.07-.48,1.42c-.32,.34-.62,.57-.9,.69,.61,.2,1.12,.52,1.52,.95,.58,.62,.87,1.35,.87,2.18s-.3,1.55-.89,2.15c-.59,.59-1.3,.89-2.14,.89s-1.55-.3-2.14-.9c-.47-.47-.75-1.03-.85-1.66l.58-.21c.06,.56,.29,1.05,.7,1.45,.48,.47,1.05,.71,1.71,.71s1.25-.24,1.72-.71c.47-.47,.71-1.05,.71-1.72s-.23-1.25-.69-1.76c-.46-.5-1.15-.84-2.08-1.02Z"/></g><g><path class="cls-1" d="M86.91,13.23v3.52h-.57V6.6h2.67c.77,.11,1.43,.43,1.97,.97,.65,.65,.97,1.43,.97,2.34s-.32,1.7-.97,2.35-1.43,.97-2.34,.97h-1.73Zm0-6.05v5.48h1.73c.75,0,1.4-.27,1.93-.8s.8-1.18,.8-1.94-.27-1.4-.8-1.94-1.18-.8-1.93-.8h-1.73Z"/><path class="cls-1" d="M97.33,12.87h-3.52l-1.42,3.89h-.61l3.78-10.39,3.78,10.39h-.6l-1.42-3.89Zm-.21-.57l-1.55-4.26-1.55,4.26h3.1Z"/><path class="cls-1" d="M108.47,15.14l.43,.39c-.99,.9-2.16,1.35-3.5,1.35-1.44,0-2.67-.51-3.68-1.52-1.01-1.01-1.52-2.24-1.52-3.68s.51-2.66,1.52-3.68c1.01-1.02,2.24-1.52,3.68-1.52,1.34,0,2.51,.45,3.5,1.35l-.43,.39c-.87-.77-1.89-1.16-3.07-1.16-1.27,0-2.36,.45-3.26,1.35s-1.35,1.99-1.35,3.26,.45,2.37,1.35,3.27c.9,.9,1.99,1.35,3.26,1.35,1.17,0,2.19-.39,3.07-1.16Z"/><path class="cls-1" d="M115.14,12.87h-3.52l-1.42,3.89h-.61l3.78-10.39,3.78,10.39h-.6l-1.42-3.89Zm-.21-.57l-1.55-4.26-1.55,4.26h3.1Z"/></g><circle class="cls-1" cx="79.05" cy="11.73" r="1.71"/></g></svg>