<svg width="1920" height="5118" viewBox="0 0 1920 5118" fill="none" xmlns="http://www.w3.org/2000/svg">
<g clip-path="url(#clip0_56_468)">
<path d="M3864.94 5475.09C3880.64 5450.71 3883.79 5427.99 3874.31 5407.56C3830.95 5314.18 3523.83 5274.14 3134.99 5223.47C2443.08 5133.27 1495.47 5009.74 1312.18 4501.04C1259.26 4354.15 1273.96 4181.04 1355.87 3986.47C1446.26 3771.78 1621.25 3524.15 1876.01 3250.48C2321.43 2771.93 2496.25 2493.31 2426.21 2373.58C2346.06 2236.63 1946.95 2333.32 1524.4 2435.72C1035.9 2554.07 276.654 2661.3 127 2455C34.71 2327.77 258.419 1960.01 485.5 1592.5C726.912 1201.81 1973.48 1134.06 1879.55 990.876C1744.31 784.703 151.575 814.478 -298.35 879.6C-748.765 944.803 -1214.49 1012.22 -1346.85 806.351C-1443.81 655.575 -1356.33 373.061 -1079.44 -57.3012L-1085.01 -60.8838C-1363.47 371.894 -1450.93 656.742 -1352.44 809.934C-1217.77 1019.38 -749.871 951.641 -297.408 886.151C150.448 821.316 1741.07 791.848 1874 994.5C1966.37 1135.31 719.767 1200.75 479.85 1589.02C251.192 1959.07 27.5652 2329.26 121.616 2458.91C273.87 2668.83 1035.39 2561.05 1525.95 2442.19C1946.03 2340.4 2342.83 2244.26 2420.48 2376.96C2487.9 2492.16 2308.21 2776.41 1871.16 3245.98C1615.87 3520.24 1440.44 3768.53 1349.77 3983.91C1267.2 4180.05 1252.44 4354.8 1305.94 4503.31C1490.6 5015.82 2440.52 5139.66 3134.13 5230.06C3520.96 5280.49 3826.49 5320.32 3868.3 5410.38C3876.87 5428.85 3873.95 5448.85 3859.37 5471.51L3864.96 5475.11L3864.94 5475.09Z" fill="#A8C8F4"/>
<path d="M3938.91 5510.53C3953.87 5486.72 3956.72 5464.32 3947.36 5443.93C3903.77 5348.92 3595.58 5302.56 3205.4 5243.84C2507.24 5138.8 1551.09 4994.92 1367.48 4472.21C1315.56 4324.42 1329.21 4152.13 1408.05 3960.17C1494.92 3748.67 1663.57 3506.57 1909.34 3240.55C2343.05 2771.09 2512.28 2495.58 2441.91 2373.52C2360.84 2232.9 1963.27 2322.18 1542.31 2416.7C1056.13 2525.88 253.938 2628.13 101.5 2416.7C8.00232 2286.99 228.772 1972.41 447.5 1609.5C679.761 1224.16 1974.38 1105.08 1879.57 959.335C1741.97 747.86 141.092 763.749 -307.993 820.272C-757.671 876.857 -1222.66 935.386 -1357.37 723.992C-1455.23 570.432 -1373.14 289.535 -1106.4 -134.706L-1112.01 -138.227C-1380.26 288.409 -1462.33 571.619 -1362.96 727.575C-1225.98 942.51 -758.879 883.715 -307.153 826.884C139.884 770.627 1738.68 754.984 1874 963C1967.29 1106.39 672.636 1223.15 441.809 1606.12C221.545 1971.57 0.877319 2288.54 96.1154 2420.63C251.113 2635.61 1055.62 2532.84 1543.75 2423.23C1962.22 2329.26 2357.51 2240.52 2436.14 2376.9C2503.91 2494.45 2329.99 2775.51 1904.45 3236.11C1658.15 3502.72 1489.06 3745.5 1401.89 3957.73C1322.42 4151.25 1308.72 4325.1 1361.19 4474.48C1546.14 5000.98 2504.56 5145.19 3204.39 5250.49C3592.59 5308.9 3899.21 5355.05 3941.3 5446.8C3949.78 5465.29 3947.16 5485 3933.25 5507.11L3938.86 5510.65L3938.91 5510.53Z" fill="#8DBFD4"/>
<rect x="639" y="4169" width="686" height="42" fill="white"/>
</g>
<defs>
<clipPath id="clip0_56_468">
<rect width="8189" height="5118" fill="white" transform="matrix(-1 0 0 1 5177 0)"/>
</clipPath>
</defs>
</svg>
